PathFileType	4	(x/y/z)	S05_M20_T01
DataRate	CameraRate	NumFrames	NumMarkers	Units	OrigDataRate	OrigDataStartFrame	OrigNumFrames
240	240	10	50	mm	240	1	541
Frame#	Time	Sternum			R.Acromium			L.Acromium			Top.Head			R.ASIS			L.ASIS			R.PSIS			L.PSIS			R.Great.Tro			L.Great.Tro			R.Iliac.Crest			L.Iliac.Crest			V.Sacral			R.Thigh.Upper.Post			R.Thigh.Lower.Ant			R.Thigh.Lower.Post			R.Thigh.Upper.Ant			R.Knee.Lat			R.Knee.Med			R.Shank.Upper.Post			R.Shank.Lower.Ant			R.Shank.Lower.Post			R.Shank.Upper.Ant			R.Ankle.Lat			R.Ankle.Med			R.Heel.Upper			R.Heel.Med			R.Heel.Lat			R.Toe.Lat			R.Toe.Med			R.Toe.Tip			L.Thigh.Upper.Post			L.Thigh.Lower.Ant			L.Thigh.Lower.Post			L.Thigh.Upper.Ant			L.Knee.Lat			L.Shank.Upper.Post			L.Shank.Lower.Ant			L.Shank.Lower.Post			L.Shank.Upper.Ant			L.Ankle.Lat			L.Ankle.Med			L.Heel.Upper			L.Heel.Med			L.Heel.Lat			L.Toe.Lat			L.Toe.Med			L.Toe.Tip			Cervical.Spine			Back			
		X1	Y1	Z1	X2	Y2	Z2	X3	Y3	Z3	X4	Y4	Z4	X5	Y5	Z5	X6	Y6	Z6	X7	Y7	Z7	X8	Y8	Z8	X9	Y9	Z9	X10	Y10	Z10	X11	Y11	Z11	X12	Y12	Z12	X13	Y13	Z13	X14	Y14	Z14	X15	Y15	Z15	X16	Y16	Z16	X17	Y17	Z17	X18	Y18	Z18	X19	Y19	Z19	X20	Y20	Z20	X21	Y21	Z21	X22	Y22	Z22	X23	Y23	Z23	X24	Y24	Z24	X25	Y25	Z25	X26	Y26	Z26	X27	Y27	Z27	X28	Y28	Z28	X29	Y29	Z29	X30	Y30	Z30	X31	Y31	Z31	X32	Y32	Z32	X33	Y33	Z33	X34	Y34	Z34	X35	Y35	Z35	X36	Y36	Z36	X37	Y37	Z37	X38	Y38	Z38	X39	Y39	Z39	X40	Y40	Z40	X41	Y41	Z41	X42	Y42	Z42	X43	Y43	Z43	X44	Y44	Z44	X45	Y45	Z45	X46	Y46	Z46	X47	Y47	Z47	X48	Y48	Z48	X49	Y49	Z49	X50	Y50	Z50	

1	0	-791.39	1224.9	346.48	-880.57	1487.6	497.94	-881.81	1495.4	158.89	-883.57	1786.9	305.13	-878.89	972.2	482.02	-836.08	972.52	235.71	-1061	998.43	358.15	-1043.8	990.51	268.44	-986.12	907.18	527.89	-897.22	894.52	142.59	-969.41	1064.1	503.23	-921.16	1047.3	170.33	-1069.8	963.27	326.82	-993.05	675.69	517.1	-957.31	591.31	469.59	-1027.4	595.83	489.68	-925.37	671.29	497.91	-1068.9	508.18	467.25	-1053.9	493.54	334.86	-1230.2	308.09	442.35	-1195.1	225.69	441.46	-1255.6	239.35	422.46	-1167.7	296.78	459.77	-1250.6	135.93	418.69	-1220.2	160.43	331.33	-1327.4	95.434	354.21	-1319.6	61.814	327.79	-1326.2	69.125	391.38	-1166.8	36.504	456.82	-1123	38.468	337.06	-1061.1	48.025	384.94	-803.13	671.51	144.23	-702.67	638.45	180.56	-755.41	590.05	162.41	-741.81	719.17	164.55	-704.27	521.89	172.02	-667.73	315.78	166.9	-580.86	297.57	166.09	-633.89	251.92	183.89	-616.56	357.9	155.65	-534.06	148.58	185.11	-508.28	180.45	270.16	-549.1	69.171	241.34	-522.94	57.999	272.37	-535.68	49.203	211.05	-382.45	147.85	148.37	-368.27	177.97	264.44	-326.86	222.61	206.27	-935.9	1531.5	334.27	-1059.1	1256.1	332.09
2	0.0041667	-786.29	1224	346.03	-875.58	1486.9	497.18	-876.7	1494.3	158.07	-878.87	1786	303.94	-873.94	971.5	481.72	-830.3	971.82	235.42	-1055.8	997.58	357.39	-1038.5	989.64	267.72	-981.45	906.67	527.4	-891.51	893.72	142.3	-964.56	1063.4	502.64	-915.66	1046.4	169.87	-1064.5	962.36	326.02	-989.01	675.4	517.01	-953.39	590.71	469.88	-1023.5	595.51	489.72	-921.3	670.66	498.21	-1065.3	507.97	467.41	-1050.2	492.94	335.27	-1228	309.04	442.55	-1193.5	226.34	441.72	-1253.9	240.43	422.62	-1165.6	297.24	460.01	-1249.7	136.98	418.97	-1219	161.21	331.64	-1326.7	97.104	354.51	-1319.2	63.498	327.97	-1325.9	70.731	391.61	-1166.7	36.476	456.92	-1122.9	38.542	337.16	-1061.2	47.755	385.17	-797.43	670.8	144.26	-697	637.75	180.63	-749.79	589.36	162.54	-736.1	718.48	164.51	-698.93	520.94	172.11	-664.83	314.6	167.01	-578.23	295.21	166.5	-631.91	250.3	184.14	-613.17	356	156	-533.59	145.85	185.56	-507.52	177.2	270.56	-550.08	66.996	241.61	-523.95	55.337	272.77	-536.54	46.728	211.48	-382.1	142.85	148.91	-367.5	172.55	264.97	-325.43	216.62	206.9	-930.89	1530.6	333.43	-1054.1	1255.2	331.45
3	0.0083333	-780.95	1223.2	345.55	-870.38	1486.2	496.38	-871.38	1493.2	157.21	-873.96	1785.1	302.7	-868.76	970.78	481.41	-824.28	971.11	235.11	-1050.4	996.72	356.6	-1032.9	988.75	266.98	-976.56	906.15	526.89	-885.55	892.9	141.99	-959.49	1062.7	502.03	-909.92	1045.4	169.38	-1059	961.43	325.19	-984.76	675.1	516.92	-949.27	590.11	470.18	-1019.4	595.19	489.76	-917.02	670.02	498.52	-1061.6	507.75	467.58	-1046.2	492.33	335.67	-1225.6	310.06	442.76	-1191.8	227.05	441.98	-1252	241.58	422.79	-1163.4	297.74	460.26	-1248.7	138.09	419.26	-1217.7	162.05	331.96	-1326	98.885	354.83	-1318.8	65.298	328.17	-1325.5	72.452	391.85	-1166.6	36.45	457.03	-1122.8	38.618	337.28	-1061.2	47.479	385.4	-791.53	670.07	144.3	-691.13	637.01	180.69	-743.98	588.63	162.68	-730.17	717.75	164.45	-693.4	519.96	172.21	-661.81	313.37	167.14	-575.48	292.8	166.93	-629.82	248.64	184.42	-609.65	354.05	156.37	-533.04	143.07	186.02	-506.67	173.88	270.97	-551.01	64.851	241.88	-524.93	52.682	273.17	-537.36	44.27	211.91	-381.68	137.74	149.46	-366.65	167	265.5	-323.9	210.47	207.54	-925.66	1529.8	332.54	-1048.8	1254.3	330.78
4	0.0125	-775.41	1222.3	345.04	-864.99	1485.5	495.54	-865.86	1492.1	156.32	-868.87	1784.2	301.43	-863.37	970.05	481.08	-818.07	970.4	234.8	-1044.8	995.85	355.78	-1027.1	987.87	266.21	-971.47	905.63	526.36	-879.38	892.07	141.67	-954.2	1061.9	501.39	-903.95	1044.5	168.87	-1053.3	960.5	324.33	-980.33	674.79	516.8	-944.96	589.49	470.49	-1015.2	594.85	489.8	-912.55	669.38	498.83	-1057.6	507.53	467.76	-1042.1	491.72	336.08	-1223.1	311.14	442.98	-1190	227.8	442.26	-1250.1	242.8	422.96	-1161.1	298.27	460.53	-1247.7	139.28	419.57	-1216.3	162.94	332.31	-1325.2	100.78	355.17	-1318.3	67.213	328.38	-1325.1	74.289	392.1	-1166.5	36.428	457.15	-1122.7	38.697	337.39	-1061.3	47.197	385.63	-785.48	669.31	144.35	-685.1	636.23	180.73	-738.03	587.88	162.83	-724.06	716.98	164.37	-687.73	518.95	172.3	-658.67	312.12	167.31	-572.61	290.35	167.39	-627.62	246.96	184.72	-606.01	352.07	156.76	-532.39	140.28	186.49	-505.72	170.54	271.39	-551.86	62.775	242.17	-525.86	50.076	273.58	-538.13	41.872	212.36	-381.19	132.57	150.01	-365.71	161.38	266.04	-322.28	204.23	208.18	-920.26	1529	331.62	-1043.3	1253.4	330.07
5	0.016667	-769.7	1221.4	344.52	-859.44	1484.7	494.67	-860.17	1491	155.39	-863.62	1783.3	300.11	-857.8	969.32	480.73	-811.72	969.68	234.47	-1038.9	994.99	354.95	-1021.1	987.01	265.43	-966.19	905.09	525.81	-873.04	891.25	141.33	-948.74	1061.2	500.73	-897.8	1043.5	168.34	-1047.4	959.57	323.44	-975.72	674.47	516.67	-940.47	588.88	470.8	-1010.7	594.51	489.83	-907.9	668.74	499.13	-1053.5	507.3	467.96	-1037.7	491.09	336.48	-1220.5	312.28	443.21	-1188.1	228.61	442.55	-1248	244.08	423.13	-1158.7	298.84	460.81	-1246.6	140.54	419.89	-1214.9	163.88	332.67	-1324.3	102.79	355.51	-1317.8	69.246	328.58	-1324.7	76.242	392.37	-1166.3	36.412	457.26	-1122.5	38.779	337.51	-1061.3	46.912	385.87	-779.31	668.54	144.41	-678.95	635.4	180.76	-731.99	587.09	163	-717.82	716.18	164.26	-681.96	517.93	172.39	-655.42	310.85	167.51	-569.64	287.9	167.85	-625.3	245.27	185.05	-602.26	350.08	157.16	-531.64	137.51	186.97	-504.65	167.22	271.82	-552.6	60.805	242.46	-526.71	47.561	273.99	-538.82	39.577	212.81	-380.63	127.39	150.56	-364.67	155.72	266.57	-320.57	197.94	208.82	-914.7	1528.2	330.67	-1037.6	1252.5	329.34
6	0.020833	-763.84	1220.6	343.98	-853.77	1484.1	493.78	-854.35	1489.9	154.43	-858.25	1782.5	298.78	-852.07	968.6	480.37	-805.24	968.97	234.14	-1032.9	994.14	354.1	-1015	986.17	264.63	-960.76	904.56	525.26	-866.56	890.44	140.97	-943.13	1060.4	500.06	-891.49	1042.6	167.8	-1041.3	958.67	322.54	-970.95	674.15	516.52	-935.82	588.27	471.12	-1006.1	594.16	489.85	-903.09	668.11	499.43	-1049.2	507.08	468.16	-1033.1	490.47	336.87	-1217.7	313.49	443.44	-1186.1	229.47	442.84	-1245.9	245.43	423.3	-1156.1	299.45	461.1	-1245.5	141.87	420.22	-1213.4	164.88	333.05	-1323.3	104.91	355.87	-1317.2	71.401	328.8	-1324.3	78.313	392.65	-1166.2	36.405	457.38	-1122.3	38.864	337.62	-1061.3	46.627	386.09	-773.08	667.76	144.47	-672.73	634.55	180.76	-725.89	586.28	163.17	-711.48	715.34	164.11	-676.12	516.91	172.48	-652.09	309.58	167.75	-566.58	285.48	168.33	-622.88	243.6	185.41	-598.43	348.1	157.57	-530.76	134.8	187.45	-503.45	163.94	272.26	-553.2	58.978	242.76	-527.47	45.178	274.39	-539.43	37.421	213.25	-379.98	122.25	151.1	-363.54	150.09	267.1	-318.76	191.67	209.44	-909.02	1527.3	329.68	-1031.8	1251.6	328.59
7	0.025	-757.85	1219.8	343.41	-848	1483.4	492.85	-848.42	1488.9	153.45	-852.76	1781.6	297.42	-846.21	967.9	480	-798.68	968.28	233.8	-1026.8	993.3	353.24	-1008.8	985.37	263.82	-955.18	904.03	524.69	-859.97	889.66	140.6	-937.37	1059.7	499.39	-885.05	1041.7	167.25	-1035.2	957.79	321.63	-966.04	673.81	516.35	-930.99	587.67	471.44	-1001.3	593.81	489.88	-898.13	667.49	499.72	-1044.8	506.86	468.38	-1028.3	489.84	337.27	-1214.9	314.75	443.67	-1184.1	230.38	443.15	-1243.6	246.85	423.47	-1153.5	300.11	461.4	-1244.2	143.27	420.56	-1211.8	165.94	333.44	-1322.3	107.16	356.24	-1316.5	73.681	329.01	-1323.9	80.505	392.94	-1166.1	36.409	457.5	-1122.2	38.953	337.74	-1061.3	46.344	386.31	-766.81	666.97	144.54	-666.46	633.66	180.73	-719.77	585.46	163.35	-705.09	714.48	163.92	-670.25	515.89	172.55	-648.66	308.34	168.01	-563.42	283.11	168.8	-620.34	241.96	185.78	-594.52	346.15	157.99	-529.75	132.18	187.93	-502.11	160.75	272.68	-553.64	57.325	243.06	-528.1	42.962	274.78	-539.92	35.441	213.68	-379.23	117.18	151.62	-362.29	144.53	267.6	-316.85	185.45	210.05	-903.24	1526.5	328.67	-1025.9	1250.7	327.81
8	0.029167	-751.75	1219.1	342.84	-842.14	1482.8	491.9	-842.4	1487.8	152.44	-847.19	1780.8	296.05	-840.22	967.21	479.61	-792.06	967.61	233.45	-1020.6	992.5	352.39	-1002.4	984.62	263.01	-949.48	903.5	524.11	-853.3	888.92	140.21	-931.49	1059	498.7	-878.51	1040.9	166.68	-1028.9	956.95	320.71	-960.97	673.48	516.16	-926.01	587.08	471.75	-996.38	593.45	489.89	-893.02	666.9	500	-1040.2	506.63	468.62	-1023.3	489.21	337.66	-1211.8	316.07	443.91	-1181.9	231.35	443.47	-1241.3	248.33	423.63	-1150.7	300.81	461.71	-1242.9	144.75	420.91	-1210.1	167.05	333.86	-1321.2	109.53	356.62	-1315.8	76.093	329.23	-1323.5	82.82	393.25	-1165.9	36.428	457.62	-1122	39.046	337.86	-1061.4	46.065	386.52	-760.54	666.2	144.6	-660.19	632.76	180.67	-713.66	584.64	163.52	-698.66	713.61	163.69	-664.37	514.89	172.61	-645.16	307.12	168.3	-560.18	280.82	169.27	-617.68	240.38	186.16	-590.54	344.26	158.4	-528.58	129.67	188.4	-500.61	157.67	273.1	-553.9	55.878	243.34	-528.59	40.943	275.16	-540.28	33.664	214.1	-378.36	112.24	152.12	-360.93	139.09	268.09	-314.83	179.33	210.64	-897.38	1525.8	327.64	-1019.9	1249.8	327.02
9	0.033333	-745.57	1218.4	342.24	-836.22	1482.2	490.92	-836.31	1486.8	151.41	-841.55	1780.1	294.67	-834.14	966.56	479.2	-785.4	966.98	233.08	-1014.2	991.74	351.53	-996.01	983.93	262.2	-943.66	902.99	523.53	-846.58	888.22	139.79	-925.51	1058.3	498.02	-871.89	1040.1	166.1	-1022.5	956.16	319.79	-955.78	673.15	515.95	-920.88	586.52	472.07	-991.29	593.09	489.91	-887.77	666.34	500.27	-1035.4	506.41	468.88	-1018.1	488.57	338.06	-1208.7	317.45	444.14	-1179.6	232.38	443.79	-1238.8	249.88	423.79	-1147.8	301.55	462.04	-1241.5	146.31	421.27	-1208.3	168.22	334.29	-1319.9	112.03	357.01	-1315	78.643	329.45	-1323	85.259	393.56	-1165.8	36.465	457.74	-1121.8	39.145	337.98	-1061.4	45.794	386.72	-754.29	665.45	144.66	-653.94	631.84	180.57	-707.59	583.82	163.68	-692.23	712.74	163.42	-658.51	513.93	172.64	-641.56	305.95	168.61	-556.84	278.64	169.73	-614.89	238.86	186.54	-586.49	342.45	158.79	-527.24	127.29	188.84	-498.95	154.74	273.5	-553.95	54.657	243.62	-528.93	39.147	275.51	-540.5	32.112	214.49	-377.38	107.44	152.6	-359.45	133.79	268.55	-312.69	173.35	211.19	-891.46	1525	326.58	-1013.8	1249	326.21
10	0.0375	-739.32	1217.8	341.63	-830.24	1481.7	489.93	-830.15	1485.9	150.36	-835.85	1779.4	293.29	-827.97	965.94	478.77	-778.73	966.39	232.7	-1007.9	991.02	350.69	-989.54	983.3	261.39	-937.74	902.48	522.94	-839.83	887.58	139.36	-919.43	1057.7	497.33	-865.22	1039.4	165.51	-1016	955.42	318.89	-950.44	672.82	515.73	-915.59	585.97	472.39	-986.05	592.73	489.93	-882.38	665.81	500.51	-1030.5	506.19	469.16	-1012.7	487.93	338.46	-1205.4	318.87	444.38	-1177.2	233.47	444.13	-1236.2	251.5	423.95	-1144.7	302.33	462.37	-1239.9	147.95	421.64	-1206.3	169.45	334.74	-1318.6	114.68	357.4	-1314	81.337	329.67	-1322.5	87.824	393.87	-1165.6	36.525	457.85	-1121.6	39.251	338.1	-1061.4	45.531	386.89	-748.07	664.73	144.71	-647.73	630.94	180.42	-701.58	583.02	163.83	-685.82	711.88	163.1	-652.68	513	172.65	-637.88	304.84	168.92	-553.4	276.59	170.16	-611.97	237.45	186.91	-582.38	340.73	159.16	-525.73	125.08	189.25	-497.12	151.98	273.88	-553.79	53.679	243.88	-529.11	37.59	275.83	-540.55	30.801	214.85	-376.26	102.81	153.04	-357.84	128.66	268.97	-310.44	167.52	211.72	-885.5	1524.3	325.51	-1007.6	1248.2	325.38
